<svg width="27" height="13" viewBox="0 0 27 13" fill="none" xmlns="http://www.w3.org/2000/svg">
<path d="M0.468796 7.2421C0.469111 7.24242 0.469374 7.24279 0.46974 7.2431L5.94777 12.6947C6.35816 13.1031 7.02195 13.1016 7.43045 12.6911C7.8389 12.2808 7.83733 11.617 7.42694 11.2085L3.74899 7.54839L25.9516 7.54839C26.5306 7.54839 27 7.07903 27 6.50001C27 5.92098 26.5306 5.45162 25.9516 5.45162L3.74904 5.45162L7.42689 1.79149C7.83728 1.38304 7.83885 0.719254 7.4304 0.308863C7.02189 -0.101633 6.35806 -0.103048 5.94772 0.305299L0.469687 5.75691C0.469372 5.75722 0.469111 5.75759 0.468743 5.7579C0.0581442 6.16772 0.0594545 6.83365 0.468796 7.2421Z" fill="white"/>
</svg>
