<svg width="16" height="16" viewBox="0 0 16 16" fill="none" xmlns="http://www.w3.org/2000/svg">
<path fill-rule="evenodd" clip-rule="evenodd" d="M8 16C3.5875 16 0 12.4125 0 8C0 3.5875 3.5875 0 8 0C12.4125 0 16 3.5875 16 8C16 12.4125 12.4125 16 8 16Z" fill="#0A0A93"/>
<path d="M4 7.32453V8.67547C4 8.81257 4.11139 8.92681 4.25134 8.92681H7.07604V11.7487C7.07604 11.8858 7.18743 12 7.32738 12H8.67833C8.81542 12 8.92681 11.8886 8.92681 11.7487V8.92396H11.7487C11.8858 8.92396 12 8.81257 12 8.67262V7.32167C12 7.18458 11.8886 7.07319 11.7487 7.07319H8.92396V4.25134C8.92396 4.11424 8.81257 4 8.67547 4H7.32453C7.18743 4 7.07319 4.11139 7.07319 4.25134V7.07604H4.25134C4.11139 7.07319 4 7.18743 4 7.32453Z" fill="white"/>
</svg>
