<svg width="18" height="18" viewBox="0 0 18 18" fill="none" xmlns="http://www.w3.org/2000/svg">
<path d="M17.1002 11.4002H15.3002C14.9202 11.4018 14.5821 11.6419 14.4554 12.0002H13.3976C12.9433 12.0011 12.5014 12.1483 12.1375 12.4202L11.8975 12.6002C11.6375 12.7944 11.322 12.8995 10.9975 12.9002H10.0975C9.26948 12.9012 8.59848 13.5722 8.59746 14.4003C8.59862 14.493 8.61444 14.5849 8.64425 14.6727C8.56026 14.657 8.47778 14.6342 8.39766 14.6046L4.30319 13.0685C3.94885 12.9376 3.55073 13.0245 3.28319 13.2912C3.10174 13.4709 2.99975 13.7158 3 13.9713C2.99961 14.3081 3.17434 14.6209 3.4614 14.7972L7.70827 17.3919C8.03822 17.5944 8.41795 17.7012 8.80509 17.7003H14.6342C14.8035 17.8904 15.0457 17.9995 15.3002 18.0003H17.1002C17.5973 18.0003 18.0002 17.5974 18.0002 17.1003V12.3002C18.0002 11.8031 17.5973 11.4002 17.1002 11.4002ZM8.80509 17.1003C8.52883 17.101 8.25784 17.0249 8.0224 16.8804L3.77672 14.2865C3.66693 14.2194 3.60002 14.0999 3.60002 13.9712C3.59981 13.8741 3.63912 13.7811 3.70894 13.7135C3.8104 13.6133 3.96091 13.5812 4.09443 13.6313L8.18679 15.1665C8.42266 15.255 8.67255 15.3004 8.92448 15.3003H10.6981C11.067 15.3042 11.4268 15.4153 11.7337 15.6201C11.8722 15.7112 12.0583 15.6728 12.1494 15.5344C12.2405 15.396 12.2022 15.2099 12.0637 15.1188C11.659 14.8493 11.1844 14.7038 10.6981 14.7003H9.4981C9.33241 14.7003 9.19811 14.5659 9.19811 14.4003C9.19811 13.9032 9.60108 13.5003 10.0981 13.5003H10.9981C11.4524 13.4994 11.8942 13.3521 12.2582 13.0802L12.4982 12.9002C12.7582 12.7062 13.0738 12.601 13.3982 12.6002H14.4002V17.1003L8.80509 17.1003ZM17.4002 17.1003C17.4002 17.266 17.2659 17.4003 17.1002 17.4003H15.3002C15.1345 17.4003 15.0002 17.266 15.0002 17.1003V12.3002C15.0002 12.1345 15.1345 12.0002 15.3002 12.0002H17.1002C17.2659 12.0002 17.4002 12.1346 17.4002 12.3002V17.1003Z" fill="#000046"/>
<path d="M10.8 9.30013C10.9657 9.30013 11.1 9.1658 11.1 9.00014V8.40012C11.1 8.23443 10.9657 8.10013 10.8 8.10013C10.6343 8.10013 10.5 8.23446 10.5 8.40012V9.00014C10.5 9.16584 10.6343 9.30013 10.8 9.30013Z" fill="#000046"/>
<path d="M12.0002 9.30013C12.1659 9.30013 12.3002 9.1658 12.3002 9.00014V8.40012C12.3002 8.23443 12.1658 8.10013 12.0002 8.10013C11.8345 8.10013 11.7002 8.23446 11.7002 8.40012V9.00014C11.7002 9.16584 11.8345 9.30013 12.0002 9.30013Z" fill="#000046"/>
<path d="M13.2004 9.30013C13.3661 9.30013 13.5004 9.1658 13.5004 9.00014V8.40012C13.5004 8.23443 13.366 8.10013 13.2004 8.10013C13.0347 8.10013 12.9004 8.23446 12.9004 8.40012V9.00014C12.9004 9.16584 13.0347 9.30013 13.2004 9.30013Z" fill="#000046"/>
<path d="M0.900014 10.2001H1.55523C1.85139 10.1998 2.14094 10.2875 2.38715 10.4522L3.28027 11.0474C3.62491 11.2778 4.03027 11.4006 4.44487 11.4002H7.00721C7.4222 11.4009 7.80266 11.1692 7.99241 10.8001H13.5002C14.163 10.8001 14.7002 10.2629 14.7002 9.60013V1.20001C14.7002 0.537266 14.163 0 13.5002 0H5.70008C5.03734 0 4.50007 0.537266 4.50007 1.20001V3.30003H4.20008C3.73664 3.30133 3.2924 3.48534 2.96375 3.81212L2.31216 4.46372C2.09629 4.67839 1.80446 4.79922 1.50004 4.80003H0.900014C0.402967 4.80003 0 5.203 0 5.70004V9.3001C0 9.79722 0.402967 10.2001 0.900014 10.2001ZM10.5002 0.600021V3.00007C10.5002 3.16576 10.3658 3.30006 10.2002 3.30006H8.40015C8.23446 3.30006 8.10016 3.16573 8.10016 3.00007V0.600021H10.5002ZM5.10009 1.20001C5.10009 0.868619 5.36872 0.599986 5.70011 0.599986H7.50014V3.00004C7.50014 3.49708 7.90311 3.90005 8.40015 3.90005H10.2002C10.6972 3.90005 11.1002 3.49708 11.1002 3.00004V0.600021H13.5002C13.8316 0.600021 14.1002 0.868654 14.1002 1.20004V9.60016C14.1002 9.93155 13.8316 10.2002 13.5002 10.2002H8.08722C8.07274 10.095 8.0424 9.99265 7.99722 9.89657C8.51143 9.86173 8.92937 9.46839 8.99532 8.95725C9.01638 8.74691 8.97384 8.53505 8.87322 8.34914C9.34475 8.19698 9.64576 7.73594 9.59534 7.24304C9.54532 6.83234 9.26164 6.48791 8.86813 6.36011C9.04887 6.03488 9.04395 5.63827 8.85526 5.31757C8.66654 4.99687 8.32221 4.80003 7.95011 4.8001H5.10006V1.20001H5.10009ZM0.600021 5.70008C0.600021 5.53438 0.734355 5.40008 0.900014 5.40008H1.50004C1.96347 5.39878 2.40771 5.21477 2.73636 4.88799L3.38796 4.23639C3.60382 4.02173 3.89565 3.90089 4.20008 3.90008H4.50007V4.8001H4.20008C4.03438 4.8001 3.90008 4.93443 3.90008 5.10009C3.90008 5.26579 4.03442 5.40008 4.20008 5.40008H7.95015C8.19867 5.40008 8.40015 5.60157 8.40015 5.85009C8.40015 6.09861 8.19867 6.3001 7.95015 6.3001H6.00011C5.83441 6.3001 5.70011 6.43443 5.70011 6.60009C5.70011 6.76579 5.83445 6.90008 6.00011 6.90008H8.50724C8.74877 6.89165 8.95894 7.06413 8.99775 7.3027C9.01118 7.42962 8.97012 7.55625 8.88476 7.6511C8.79939 7.74596 8.67775 7.80013 8.55013 7.8001H6.00011C5.83441 7.8001 5.70011 7.9344 5.70011 8.10009C5.70011 8.26579 5.83445 8.40008 6.00011 8.40008H7.95015C8.07777 8.40005 8.19941 8.45423 8.28477 8.54908C8.37013 8.64393 8.41119 8.7706 8.39776 8.89748C8.35895 9.13602 8.14882 9.3085 7.90726 9.3001H6.00014C5.83445 9.3001 5.70015 9.4344 5.70015 9.60009C5.70015 9.76579 5.83448 9.90008 6.00014 9.90008H7.05017C7.17779 9.90005 7.29943 9.95423 7.38479 10.0491C7.47015 10.1439 7.51121 10.2706 7.49778 10.3975C7.45897 10.636 7.24884 10.8085 7.00728 10.8001H4.44487C4.14871 10.8004 3.85916 10.7127 3.61296 10.5481L2.71984 9.95289C2.37519 9.7224 1.96984 9.5996 1.55523 9.60009H0.900014C0.73432 9.60009 0.600021 9.46579 0.600021 9.3001V5.70008Z" fill="#000046"/>
</svg>
