<svg width="20" height="20" viewBox="0 0 20 20" fill="none" xmlns="http://www.w3.org/2000/svg">
<path d="M19.0909 10.7692C18.8498 10.7692 18.6186 10.8665 18.4481 11.0396C18.2776 11.2127 18.1818 11.4475 18.1818 11.6923V15.5812C18.1811 16.2633 17.9139 16.9172 17.4389 17.3995C16.9639 17.8818 16.3199 18.1531 15.6482 18.1538H4.35182C3.68008 18.1531 3.03606 17.8818 2.56106 17.3995C2.08607 16.9172 1.8189 16.2633 1.81818 15.5812V11.6923C1.81818 11.4475 1.7224 11.2127 1.55192 11.0396C1.38143 10.8665 1.1502 10.7692 0.909091 10.7692C0.667985 10.7692 0.436754 10.8665 0.266267 11.0396C0.0957789 11.2127 0 11.4475 0 11.6923V15.5812C0.00120326 16.7528 0.460084 17.876 1.27595 18.7044C2.09181 19.5328 3.19801 19.9988 4.35182 20H15.6482C16.802 19.9988 17.9082 19.5328 18.7241 18.7044C19.5399 17.876 19.9988 16.7528 20 15.5812V11.6923C20 11.4475 19.9042 11.2127 19.7337 11.0396C19.5632 10.8665 19.332 10.7692 19.0909 10.7692Z" fill="#3660B3"/>
<path d="M5.33818 6.97455L9.11888 3.08944V14.4796C9.11888 14.7196 9.21167 14.9498 9.37682 15.1196C9.54198 15.2893 9.76598 15.3846 9.99955 15.3846C10.2331 15.3846 10.4571 15.2893 10.6223 15.1196C10.7874 14.9498 10.8802 14.7196 10.8802 14.4796V3.08944L14.6609 6.97455C14.827 7.13941 15.0495 7.23062 15.2804 7.22856C15.5113 7.2265 15.7322 7.13132 15.8955 6.96353C16.0587 6.79574 16.1514 6.56876 16.1534 6.33147C16.1554 6.09419 16.0666 5.86558 15.9062 5.6949L10.6222 0.264968C10.457 0.0953093 10.2331 0 9.99955 0C9.76603 0 9.54207 0.0953093 9.37692 0.264968L4.09292 5.6949C3.9325 5.86558 3.84373 6.09419 3.84574 6.33147C3.84774 6.56876 3.94036 6.79574 4.10364 6.96353C4.26693 7.13132 4.48781 7.2265 4.71872 7.22856C4.94963 7.23062 5.17208 7.13941 5.33818 6.97455Z" fill="#3660B3"/>
</svg>
