<svg width="12" height="15" viewBox="0 0 12 15" fill="none" xmlns="http://www.w3.org/2000/svg">
<path d="M5.8335 7.77551C6.79514 7.77551 7.62784 7.4306 8.30822 6.75009C8.9886 6.06969 9.3335 5.23718 9.3335 4.2754C9.3335 3.31395 8.9886 2.48133 8.30811 1.80071C7.62762 1.12042 6.79503 0.775513 5.8335 0.775513C4.87174 0.775513 4.03926 1.12042 3.35888 1.80082C2.67851 2.48122 2.3335 3.31384 2.3335 4.2754C2.3335 5.23718 2.67851 6.0698 3.35899 6.7502C4.03948 7.43049 4.87208 7.77551 5.8335 7.77551Z" fill="#6F6F6F"/>
<path d="M11.6384 11.6469C11.6195 11.3831 11.5813 11.0952 11.5251 10.7913C11.4683 10.4851 11.3953 10.1957 11.3078 9.93109C11.2174 9.65764 11.0945 9.3876 10.9426 9.12882C10.7849 8.86022 10.5997 8.62634 10.3919 8.43388C10.1745 8.23254 9.90846 8.07066 9.60078 7.95258C9.29416 7.83512 8.95436 7.77562 8.59088 7.77562C8.44813 7.77562 8.31008 7.83233 8.04346 8.00041C7.87938 8.10403 7.68745 8.22386 7.47322 8.3564C7.29004 8.46942 7.04189 8.57531 6.73537 8.67117C6.43633 8.76487 6.1327 8.81239 5.83301 8.81239C5.53333 8.81239 5.2298 8.76487 4.93044 8.67117C4.62425 8.57541 4.37609 8.46952 4.19313 8.3565C3.98092 8.2252 3.78889 8.10537 3.62235 8.00031C3.35606 7.83223 3.2179 7.77551 3.07515 7.77551C2.71156 7.77551 2.37187 7.83512 2.06536 7.95268C1.75788 8.07055 1.4917 8.23243 1.27416 8.43398C1.06644 8.62655 0.881129 8.86033 0.723659 9.12882C0.571843 9.3876 0.44894 9.65754 0.358469 9.93119C0.271092 10.1958 0.198011 10.4851 0.141254 10.7913C0.0850297 11.0948 0.0468357 11.3827 0.027952 11.6472C0.00938847 11.9063 0 12.1752 0 12.4468C0 13.1536 0.232045 13.7258 0.689626 14.1478C1.14155 14.5643 1.73953 14.7755 2.46671 14.7755H9.19995C9.92713 14.7755 10.5249 14.5644 10.9769 14.1478C11.4346 13.7261 11.6667 13.1538 11.6667 12.4467C11.6666 12.1739 11.6571 11.9047 11.6384 11.6469Z" fill="#6F6F6F"/>
</svg>
