<svg width="14" height="16" viewBox="0 0 14 16" fill="none" xmlns="http://www.w3.org/2000/svg">
<path d="M12.3047 2.53333H9.66797V2.09387C9.66797 1.3669 9.07658 0.775513 8.34961 0.775513H4.83398C4.10701 0.775513 3.51563 1.3669 3.51563 2.09387V2.53333H0.878906C0.393486 2.53333 0 2.92681 0 3.41223C0 3.89759 0.393486 4.29114 0.878906 4.29114C4.92088 4.29114 8.26286 4.29114 12.3047 4.29114C12.7901 4.29114 13.1836 3.89759 13.1836 3.41223C13.1836 2.92681 12.7901 2.53333 12.3047 2.53333ZM8.78906 2.53333H4.39453V2.09387C4.39453 1.85141 4.59152 1.65442 4.83398 1.65442H8.34961C8.59207 1.65442 8.78906 1.85141 8.78906 2.09387V2.53333Z" fill="#6F6F6F"/>
<path d="M0.914062 5.17004L1.69245 14.5666C1.74823 15.2442 2.32544 15.7755 3.00565 15.7755H10.1777C10.8579 15.7755 11.4351 15.2442 11.4909 14.5666L12.2692 5.17004H0.914062ZM4.39397 14.0177C4.16394 14.0177 3.9704 13.8388 3.95581 13.6057L3.51636 6.51585C3.50133 6.27339 3.68543 6.06483 3.92748 6.0498C4.17853 6.03219 4.3781 6.21846 4.39354 6.46092L4.83299 13.5508C4.84855 13.8018 4.64988 14.0177 4.39397 14.0177ZM7.0311 13.5782C7.0311 13.8211 6.83455 14.0177 6.59165 14.0177C6.34875 14.0177 6.1522 13.8211 6.1522 13.5782V6.4884C6.1522 6.2455 6.34875 6.04895 6.59165 6.04895C6.83455 6.04895 7.0311 6.2455 7.0311 6.4884V13.5782ZM9.66694 6.51588L9.22749 13.6057C9.21305 13.8364 9.02077 14.0287 8.76144 14.0169C8.51939 14.0018 8.33528 13.7933 8.35031 13.5508L8.78977 6.46095C8.8048 6.21849 9.01723 6.04209 9.25582 6.04983C9.49787 6.06486 9.68197 6.27342 9.66694 6.51588Z" fill="#6F6F6F"/>
</svg>
