<svg width="15" height="16" viewBox="0 0 15 16" fill="none" xmlns="http://www.w3.org/2000/svg">
<path fill-rule="evenodd" clip-rule="evenodd" d="M11.0279 7.2474L11.8748 6.40052C12.5651 5.71016 12.5651 4.59087 11.8748 3.90052C11.1844 3.21016 10.0651 3.21016 9.37477 3.90052L8.51283 4.76246C9.10043 5.80516 9.97057 6.66843 11.0279 7.2474ZM7.05787 6.21742L3.35615 9.91914C2.93109 10.3442 2.71856 10.5567 2.57883 10.8178C2.43909 11.0789 2.38015 11.3736 2.26226 11.9631L2.02186 13.1651C1.95534 13.4977 1.92208 13.664 2.01668 13.7586C2.11129 13.8532 2.2776 13.82 2.61021 13.7534L3.81219 13.513L3.8122 13.513C4.40164 13.3951 4.69637 13.3362 4.95746 13.1965C5.21856 13.0567 5.43109 12.8442 5.85615 12.4191L9.56912 8.70617C8.56334 8.06184 7.70799 7.21217 7.05787 6.21742Z" fill="#6F6F6F"/>
</svg>
