<svg width="45" height="45" viewBox="0 0 45 45" fill="none" xmlns="http://www.w3.org/2000/svg">
<path fill-rule="evenodd" clip-rule="evenodd" d="M25.391 27.5939L15.7403 40.5354C15.4918 40.8667 15.5589 41.3368 15.8903 41.5854C16.2217 41.8339 16.6918 41.7668 16.9403 41.4354L26.5933 28.4901C26.754 28.2757 26.7882 27.9919 26.683 27.7455C26.5777 27.499 26.349 27.3276 26.083 27.2955C25.817 27.2634 25.5541 27.3757 25.3934 27.5901L25.391 27.5939Z" fill="white"/>
<path d="M1.85011 31.1532L5.85347 32.4904C5.98785 32.5394 6.1297 32.5647 6.27269 32.5654C6.50507 32.5644 6.73296 32.5013 6.93264 32.3824L20.6272 24.1778C20.8007 24.6711 21.0105 25.151 21.2549 25.6132L18.855 28.8305C18.6542 29.103 18.5683 29.4434 18.6158 29.7785L18.8138 31.1675L17.3251 31.6085C16.7713 31.7693 16.393 32.2799 16.4003 32.8564C16.4148 33.1702 16.4537 33.4823 16.5166 33.7901L16.5751 34.1651L15.0752 34.6084C14.4664 34.7933 14.0837 35.3945 14.1737 36.0243L14.3365 37.1726L12.895 37.6015C11.7222 37.9449 11.0184 39.141 11.2878 40.3329L12.1128 43.9898C12.2369 44.5747 12.7509 44.9948 13.3488 45C13.3825 45 13.4171 45 13.4515 44.9955L17.6589 44.7075C18.0414 44.6911 18.3957 44.5021 18.6226 44.1938L28.4727 30.9868C32.1956 31.7382 36.0339 30.4171 38.5055 27.5335C40.9773 24.6498 41.6958 20.6547 40.3838 17.0905C43.5617 14.9165 45.0846 11.0187 44.2223 7.2662C43.3601 3.51367 40.2883 0.67165 36.4802 0.103018C32.6722 -0.465614 28.9042 1.35506 26.9832 4.69198C24.005 4.6555 21.1523 5.88979 19.14 8.08558C17.1276 10.2814 16.1462 13.2306 16.4415 16.1943L12.9826 18.2628C12.7003 18.4402 12.4974 18.72 12.4164 19.0435L12.0736 20.4009L10.5301 20.2419C9.95509 20.1775 9.40799 20.5054 9.19372 21.0429C9.08747 21.3443 9.00468 21.6535 8.94623 21.9677L8.86072 22.3269L7.31803 22.1709C6.67847 22.0955 6.08198 22.5058 5.92387 23.1301L5.64113 24.255L4.14722 24.105C3.65083 24.0493 3.14996 24.159 2.7223 24.417C2.13275 24.7615 1.72698 25.3505 1.61536 26.0242L0.989161 29.7133C0.866558 30.3426 1.23771 30.9633 1.85011 31.1532ZM38.2808 25.2794C36.2642 28.7208 32.212 30.4101 28.3482 29.4201C28.054 29.3452 27.7438 29.4551 27.5622 29.6983L17.4819 43.2173L13.5377 43.4873L12.7488 40.0089C12.6964 39.7739 12.7481 39.5279 12.8905 39.3339C12.9974 39.193 13.1467 39.0902 13.3165 39.0406L14.938 38.5584C15.5518 38.3802 15.9388 37.7751 15.8432 37.1432L15.6804 35.995L17.1804 35.5517C17.7952 35.3732 18.1822 34.7663 18.0849 34.1335L17.9957 33.5545C17.9611 33.3355 17.9282 33.1338 17.9101 32.998L19.4236 32.5503C20.0349 32.37 20.4192 31.766 20.3235 31.1358L20.1121 29.6509L22.7468 26.1177C22.9279 25.8751 22.9454 25.5472 22.791 25.2867C20.4995 21.4311 21.3966 16.4768 24.8947 13.6697C28.3928 10.8626 33.4239 11.0596 36.6917 14.1316C37.4138 14.8062 38.0178 15.5968 38.4789 16.4707C37.6157 16.8838 36.6835 17.134 35.7295 17.2087C35.4963 15.8068 34.3085 14.7627 32.8883 14.7112C31.468 14.6597 30.2078 15.615 29.8736 16.9963C29.5393 18.3776 30.2236 19.8034 31.5104 20.4067C32.7971 21.01 34.3308 20.6244 35.179 19.4841C35.3489 19.25 35.4831 18.992 35.5772 18.7184C36.786 18.6591 37.9717 18.3643 39.0676 17.8507C39.896 20.3239 39.6089 23.0349 38.2808 25.2794ZM31.8311 16.5295C32.0391 16.3582 32.2898 16.2464 32.5563 16.2063C32.6291 16.1958 32.7026 16.1906 32.7761 16.1906C33.4095 16.1924 33.9734 16.5919 34.1852 17.1888C33.3708 17.0952 32.5764 16.8727 31.8318 16.5295H31.8311ZM33.9017 18.6685C33.5243 19.1097 32.9252 19.2916 32.3661 19.1348C31.8071 18.978 31.39 18.5111 31.297 17.9379C32.125 18.3079 33.0028 18.5539 33.9024 18.6684L33.9017 18.6685ZM35.0979 1.50157C38.4989 1.49665 41.5176 3.6789 42.5792 6.90999C43.6408 10.1411 42.5047 13.6884 39.7635 15.7016C39.2308 14.7065 38.5384 13.8056 37.7138 13.0346C37.4888 12.8268 37.2579 12.6386 37.0223 12.4526C36.8765 11.8939 36.6839 11.3485 36.4463 10.8222C35.2152 8.09428 32.8689 6.02866 30.0071 5.15321C29.5644 5.02006 29.1134 4.91609 28.6571 4.842C30.1282 2.74158 32.5337 1.49393 35.0979 1.50157ZM3.1011 26.2739C3.13994 26.0346 3.28417 25.8253 3.49404 25.7039C3.64363 25.6126 3.8194 25.5739 3.99351 25.5937L5.68016 25.7663C6.31435 25.8388 6.90241 25.4253 7.04883 24.8041L7.33235 23.6791L8.89157 23.8396C9.5284 23.8994 10.1135 23.4851 10.2685 22.8646L10.4005 22.3104C10.453 22.0907 10.4995 21.8859 10.5347 21.7502L12.1052 21.9115C12.7387 21.9806 13.3253 21.5697 13.4768 20.9508L13.8473 19.4884L17.6264 17.2295C17.8859 17.0744 18.0269 16.7787 17.9841 16.4795C17.3422 12.1089 19.9702 7.91929 24.1845 6.59465C28.3988 5.27001 32.9511 7.20275 34.9252 11.1547C33.2598 10.383 31.4194 10.0675 29.5921 10.2405C26.6371 10.5054 23.9322 12.008 22.146 14.3769C20.3598 16.7457 19.6592 19.7598 20.2174 22.6736L6.25019 31.0415L2.50408 29.7905L3.1011 26.2739Z" fill="white"/>
<path fill-rule="evenodd" clip-rule="evenodd" d="M18.4268 21.9976C18.7764 21.7823 18.8881 21.326 18.6772 20.9738C18.4664 20.6214 18.0115 20.5042 17.6566 20.7106L5.66216 27.9006C5.42864 28.0365 5.28626 28.2874 5.28934 28.5576C5.29242 28.8277 5.44068 29.0753 5.67728 29.2057C5.91387 29.3362 6.20232 29.3292 6.43241 29.1876L18.4268 21.9976Z" fill="white"/>
</svg>
