<svg width="53" height="40" viewBox="0 0 53 40" fill="none" xmlns="http://www.w3.org/2000/svg">
<path d="M22.5573 18.9291H12.5085C12.0829 18.9291 11.7383 19.2737 11.7383 19.6989C11.7383 20.1244 12.0829 20.469 12.5085 20.469H13.8517V21.6696H12.8387C12.0484 21.6696 11.3893 22.2438 11.257 22.9972H5.64698V21.5081C5.64698 20.9351 6.11302 20.469 6.68604 20.469H8.91483C9.34039 20.469 9.68501 20.1244 9.68501 19.6989C9.68501 19.2737 9.34039 18.9291 8.91483 18.9291H6.68604C5.2639 18.9291 4.10703 20.086 4.10703 21.5081V32.382C4.10703 33.8041 5.2639 34.9614 6.68604 34.9614H22.5573C23.9794 34.9614 25.1363 33.8041 25.1363 32.382V21.5081C25.1363 20.086 23.9794 18.9291 22.5573 18.9291ZM12.7733 23.2753C12.7733 23.2392 12.8026 23.2096 12.8387 23.2096H16.4042C16.4407 23.2096 16.47 23.2392 16.47 23.2753V30.6148C16.47 30.6509 16.4407 30.6805 16.4042 30.6805H12.8387C12.8026 30.6805 12.7733 30.6509 12.7733 30.6148V23.2753ZM5.64698 24.5371H11.2334V26.1753H5.64698V24.5371ZM5.64698 27.7152H11.2334V29.353H5.64698V27.7152ZM13.8517 33.421H6.68604C6.11302 33.421 5.64698 32.955 5.64698 32.382V30.8929H11.2574C11.3893 31.6463 12.0484 32.2205 12.8387 32.2205H13.8517V33.421ZM23.5963 32.382C23.5963 32.955 23.1303 33.421 22.5573 33.421H15.3916V32.2205H16.4042C17.1949 32.2205 17.8536 31.6463 17.9859 30.8933H23.5963V32.382ZM23.5963 29.353H18.0099V27.7148H23.5963V29.353ZM23.5963 26.1753H18.0099V24.5371H23.5963V26.1753ZM23.5963 22.9972H17.9859C17.8536 22.2438 17.1949 21.6696 16.4042 21.6696H15.3916V20.469H22.5573C23.1303 20.469 23.5963 20.9351 23.5963 21.5081V22.9972Z" fill="white"/>
<path d="M51.9438 5.83885L46.684 0.579037C46.3105 0.205568 45.814 0 45.2863 0H16.7989C15.7089 0 14.8221 0.886788 14.8221 1.97674V6.46838C14.8221 6.89354 15.1668 7.23816 15.5923 7.23816C16.0175 7.23816 16.3621 6.89354 16.3621 6.46838V1.97674C16.3621 1.73591 16.558 1.53996 16.7989 1.53996H45.2863C45.4029 1.53996 45.5127 1.58524 45.5948 1.66779L50.8551 6.928C50.9376 7.01015 50.9829 7.11995 50.9829 7.23656V22.2691C50.9829 22.5099 50.7869 22.7055 50.5461 22.7055H37.7007V22.0587C37.7007 21.531 37.4951 21.0345 37.1217 20.661L36.5995 20.1389H37.3793C38.8015 20.1389 39.9583 18.982 39.9583 17.5598V6.68597C39.9583 5.26382 38.8015 4.10655 37.3793 4.10655H21.5081C20.086 4.10655 18.9291 5.26382 18.9291 6.68597V14.8221H16.3621V10.0616C16.3621 9.63645 16.0175 9.29144 15.5923 9.29144C15.1668 9.29144 14.8221 9.63645 14.8221 10.0616V14.8221H1.97674C0.886788 14.8221 0 15.7089 0 16.7989V37.0912C0 38.1812 0.886788 39.0679 1.97674 39.0679H35.724C36.8139 39.0679 37.7007 38.1812 37.7007 37.0912V24.2458H50.5461C51.6361 24.2458 52.5228 23.359 52.5228 22.2691V7.23656C52.5228 6.70881 52.3173 6.21232 51.9438 5.83885ZM38.4184 14.5308H37.5705C37.1449 14.5308 36.8003 14.8754 36.8003 15.301C36.8003 15.7262 37.1449 16.0708 37.5705 16.0708H38.4184V17.5598C38.4184 18.1329 37.9524 18.5989 37.3793 18.5989H35.0596L32.7522 16.292C32.7759 16.2198 32.7943 16.1461 32.8079 16.0712H33.9768C34.4024 16.0712 34.747 15.7262 34.747 15.301C34.747 14.8758 34.4024 14.5308 33.9768 14.5308H32.8324V12.8931H38.4184V14.5308ZM38.4184 11.3527H32.832V9.71499H38.4184V11.3527ZM30.2137 5.64691H37.3793C37.9524 5.64691 38.4184 6.11295 38.4184 6.68597V8.17504H32.8079C32.6757 7.42169 32.0169 6.84746 31.2263 6.84746H30.2137V5.64691ZM31.292 8.45313V15.0029C31.1353 14.9303 30.9727 14.8806 30.8084 14.8518C30.5779 14.8117 30.7286 14.8221 27.5954 14.8221V8.45273C27.5954 8.41667 27.6247 8.38742 27.6607 8.38742H31.2263C31.2628 8.38742 31.292 8.41667 31.292 8.45313ZM20.469 6.68597C20.469 6.11295 20.9351 5.64651 21.5081 5.64651H28.6737V6.84746H27.6607C26.8705 6.84746 26.2117 7.42169 26.0795 8.17464H20.469V6.68597ZM20.469 9.71499H26.0555V11.3527H20.469V9.71499ZM20.469 12.8927H26.0555V14.8221H20.469V12.8927ZM36.1607 37.0912C36.1607 37.332 35.9648 37.528 35.724 37.528H1.97674C1.73591 37.528 1.53996 37.332 1.53996 37.0912V16.7989C1.53996 16.558 1.73591 16.3621 1.97674 16.3621H30.4641C30.5804 16.3621 30.6901 16.4074 30.7727 16.4903C32.148 17.8656 31.7096 17.4272 36.0329 21.7501C36.1155 21.8327 36.1607 21.9425 36.1607 22.0591V37.0912Z" fill="white"/>
</svg>
