<svg width="45" height="44" viewBox="0 0 45 44" fill="none" xmlns="http://www.w3.org/2000/svg">
<path d="M42.3441 36.7453H41.386C41.062 35.3255 39.7912 34.2614 38.2749 34.2614C37.7686 34.2614 37.279 34.392 36.8347 34.6177C35.9812 33.5593 34.6901 32.9206 33.3076 32.9206C32.1012 32.9206 31.0059 33.3975 30.1927 34.1687V31.8528L30.644 32.1731C30.7689 32.2616 30.9118 32.3037 31.0542 32.3037C31.2766 32.3037 31.4951 32.1996 31.6338 32.0047C31.8604 31.6849 31.7852 31.242 31.4658 31.0149L30.1931 30.1118V19.4047H31.0551C31.4469 19.4047 31.7648 19.0873 31.7648 18.6951V13.6682C31.7648 13.276 31.4469 12.9586 31.0551 12.9586H27.1496V9.379C27.1496 8.98678 26.8317 8.66933 26.4399 8.66933H25.9143V6.97842H26.8061C26.9873 6.97842 27.151 6.9084 27.2764 6.79674C27.7798 7.80779 28.7956 8.77578 30.6904 9.17414C30.7396 9.18455 30.7888 9.18975 30.8375 9.18975C31.1659 9.18975 31.4606 8.96029 31.5311 8.6258C31.612 8.24211 31.366 7.86598 30.9828 7.78555C28.523 7.26844 28.2666 5.6537 28.2714 4.97242C28.4913 4.84421 28.7435 4.7652 29.0156 4.76425L30.838 4.76141C31.2297 4.76094 31.5467 4.44348 31.5467 4.05174V0.70967C31.5467 0.317459 31.2288 0 30.837 0H23.2568C19.8003 0 16.9881 2.81218 16.9881 6.26875C16.9881 6.66096 17.3055 6.97842 17.6977 6.97842H20.1177V8.66885H19.3882C18.996 8.66885 18.6785 8.98631 18.6785 9.37852V12.9581H17.1664V12.0734C17.1664 10.3153 15.88 8.85621 14.2 8.57707V6.018C14.2 5.62579 13.8826 5.30833 13.4903 5.30833H13.1L12.8644 1.34506C12.8422 0.970355 12.5313 0.677498 12.1557 0.677498H8.00318C7.62753 0.677498 7.31717 0.970355 7.29446 1.34506L7.05885 5.30833H6.669C6.27679 5.30833 5.95933 5.62579 5.95933 6.018V8.57707C4.27931 8.85621 2.99291 10.3158 2.99291 12.0738V12.9586H0.70967C0.317459 12.9586 0 13.276 0 13.6682V18.6951C0 19.0873 0.317459 19.4047 0.70967 19.4047H1.57168V39.5177C1.57168 41.9893 3.57721 44 6.0426 44H42.3436C43.2567 44 43.9995 43.2572 43.9995 42.3441V38.4017C44 37.4881 43.2572 36.7453 42.3441 36.7453ZM33.3072 34.34C34.4308 34.34 35.4717 34.9493 36.0238 35.9301C36.2168 36.2726 36.6497 36.3919 36.9904 36.2007C37.0339 36.1761 37.0732 36.1477 37.1096 36.1165C37.4322 35.8355 37.8453 35.6808 38.2744 35.6808C39.0001 35.6808 39.6237 36.1198 39.8981 36.7453H30.2769C30.5995 35.369 31.8339 34.34 33.3072 34.34ZM18.0876 22.9361C17.6954 22.9361 17.3779 23.254 17.3779 23.6457V32.7144C17.3779 33.0422 17.1111 33.3091 16.7832 33.3091C16.4554 33.3091 16.189 33.0427 16.189 32.7144V23.6457C16.189 23.254 15.8715 22.9361 15.4793 22.9361C15.0871 22.9361 14.7696 23.254 14.7696 23.6457V31.0438C14.7696 31.3712 14.5028 31.638 14.1749 31.638C13.8471 31.638 13.5807 31.3717 13.5807 31.0438V23.6457C13.5807 23.254 13.2633 22.9361 12.871 22.9361C12.4788 22.9361 12.1614 23.254 12.1614 23.6457V28.5372C12.1614 28.8651 11.8945 29.1319 11.5667 29.1319C11.2388 29.1319 10.9724 28.8656 10.9724 28.5372V14.3779H21.2906V21.3909C21.1638 21.1964 20.9457 21.0673 20.6963 21.0673C20.3041 21.0673 19.9867 21.3847 19.9867 21.7769V31.0438C19.9867 31.3712 19.7198 31.638 19.392 31.638C19.0641 31.638 18.7977 31.3717 18.7977 31.0438V23.6457C18.7973 23.254 18.4793 22.9361 18.0876 22.9361ZM22.7099 22.3418V19.4047H28.7729V29.1054L21.6918 24.0815C22.2969 23.7337 22.7099 23.0884 22.7099 22.3418ZM30.345 17.9854H22.7099V14.3779H30.345V17.9854ZM30.126 3.34254L29.1769 3.34396V1.41934H30.126V3.34254ZM23.2568 1.41934H27.7576V3.64155C26.985 4.01484 26.3955 4.71032 26.183 5.55908H25.2042H20.8279H18.459C18.8039 3.22048 20.8241 1.41934 23.2568 1.41934ZM21.5371 6.97842H24.494V8.66885H21.5371V6.97842ZM20.0983 10.0882H25.7298V12.9581H20.0983V10.0882ZM7.37867 6.72814H12.7807V8.5255H7.37867V6.72814ZM8.67217 2.09731H11.4872L11.6783 5.3088H8.48103L8.67217 2.09731ZM4.41225 12.0738C4.41225 10.9001 5.36747 9.94484 6.54126 9.94484H6.66948H13.4908H13.6186C14.7924 9.94484 15.7476 10.9001 15.7476 12.0738V12.9586H4.41225V12.0738ZM1.41934 14.3779H9.55263V17.9854H1.41934V14.3779ZM2.99149 39.5173V19.4047H9.5531V28.5377C9.5531 29.6486 10.4563 30.5518 11.5667 30.5518C11.7748 30.5518 11.9721 30.5111 12.1614 30.4519V31.0443C12.1614 32.1547 13.0645 33.0578 14.1749 33.0578C14.3921 33.0578 14.5974 33.0143 14.7933 32.9504C14.9116 33.9492 15.7533 34.7289 16.7832 34.7289C17.8132 34.7289 18.6549 33.9492 18.7731 32.9504C18.969 33.0143 19.1743 33.0578 19.3915 33.0578C20.5019 33.0578 21.4055 32.1547 21.4055 31.0443V25.6191L28.7729 30.846V36.7453H24.1695C23.2564 36.7453 22.5136 37.4881 22.5136 38.4012V42.3436C22.5136 42.4245 22.5263 42.5021 22.5377 42.5802H6.04307C4.36021 42.5802 2.99149 41.2063 2.99149 39.5173ZM42.5807 42.3436C42.5807 42.4737 42.4742 42.5802 42.3441 42.5802H24.1695C24.0394 42.5802 23.9329 42.4737 23.9329 42.3436V38.4012C23.9329 38.2711 24.0394 38.1646 24.1695 38.1646H42.3441C42.4742 38.1646 42.5807 38.2711 42.5807 38.4012V42.3436Z" fill="white"/>
<path d="M35.8335 26.0387C37.2245 26.0387 38.3567 24.9066 38.3567 23.5156C38.3567 22.1242 37.2245 20.9925 35.8335 20.9925C34.4426 20.9925 33.3104 22.1247 33.3104 23.5156C33.3104 24.907 34.4426 26.0387 35.8335 26.0387ZM35.8335 22.4118C36.442 22.4118 36.9373 22.9067 36.9373 23.5156C36.9373 24.124 36.442 24.6194 35.8335 24.6194C35.2251 24.6194 34.7298 24.124 34.7298 23.5156C34.7298 22.9067 35.2251 22.4118 35.8335 22.4118Z" fill="white"/>
<path d="M39.0572 18.1349C41.7961 18.1349 44.024 15.907 44.024 13.1677C44.024 10.4284 41.7961 8.20047 39.0572 8.20047C36.3184 8.20047 34.09 10.4284 34.09 13.1677C34.09 15.907 36.3184 18.1349 39.0572 18.1349ZM39.0572 9.62028C41.0135 9.62028 42.6046 11.2118 42.6046 13.1682C42.6046 15.1245 41.0135 16.716 39.0572 16.716C37.1009 16.716 35.5093 15.1245 35.5093 13.1682C35.5093 11.2118 37.1009 9.62028 39.0572 9.62028Z" fill="white"/>
<path d="M39.0575 11.9858C39.709 11.9858 40.2393 12.5162 40.2393 13.1682C40.2393 13.5604 40.5573 13.8778 40.949 13.8778C41.3408 13.8778 41.6587 13.5604 41.6587 13.1682C41.6587 11.7337 40.4915 10.5665 39.0575 10.5665C38.6658 10.5665 38.3478 10.884 38.3478 11.2762C38.3478 11.6684 38.6653 11.9858 39.0575 11.9858Z" fill="white"/>
</svg>
