<svg width="28" height="49" viewBox="0 0 28 49" fill="none" xmlns="http://www.w3.org/2000/svg">
<path d="M17.2761 3.40694H13.6839C13.2874 3.40694 12.9659 3.7284 12.9659 4.1249C12.9659 4.5214 13.2874 4.84287 13.6839 4.84287H17.2761C17.6726 4.84287 17.9941 4.5214 17.9941 4.1249C17.9941 3.7284 17.6727 3.40694 17.2761 3.40694Z" fill="white"/>
<path d="M11.5967 3.40694H10.3085C9.91202 3.40694 9.59056 3.7284 9.59056 4.1249C9.59056 4.5214 9.91202 4.84287 10.3085 4.84287H11.5967C11.9932 4.84287 12.3147 4.5214 12.3147 4.1249C12.3147 3.7284 11.9932 3.40694 11.5967 3.40694Z" fill="white"/>
<path d="M13.791 41.0998C12.254 41.0998 11.0036 42.3503 11.0036 43.8872C11.0036 45.4242 12.2539 46.6747 13.791 46.6747C15.3281 46.6747 16.5785 45.4243 16.5785 43.8872C16.5785 42.3503 15.328 41.0998 13.791 41.0998ZM13.791 45.2386C13.0459 45.2386 12.4396 44.6324 12.4396 43.8871C12.4396 43.142 13.0458 42.5357 13.791 42.5357C14.5362 42.5357 15.1424 43.142 15.1424 43.8871C15.1425 44.6324 14.5362 45.2386 13.791 45.2386Z" fill="white"/>
<path d="M23.7971 6.69089H3.78691C3.39041 6.69089 3.06894 7.01235 3.06894 7.40885V31.9478C3.06894 32.3443 3.39041 32.6658 3.78691 32.6658C4.18341 32.6658 4.50487 32.3443 4.50487 31.9478V8.12682H23.0791V22.3099C23.0791 22.7064 23.4006 23.0279 23.7971 23.0279C24.1936 23.0279 24.5151 22.7064 24.5151 22.3099V7.40885C24.5152 7.01235 24.1937 6.69089 23.7971 6.69089Z" fill="white"/>
<path d="M23.7971 24.4638C23.4006 24.4638 23.0791 24.7853 23.0791 25.1818V38.8197H4.50487V34.8197C4.50487 34.4232 4.18341 34.1017 3.78691 34.1017C3.39041 34.1017 3.06894 34.4232 3.06894 34.8197V39.5377C3.06894 39.9342 3.39041 40.2557 3.78691 40.2557H23.7972C24.1937 40.2557 24.5152 39.9342 24.5152 39.5377V25.1819C24.5152 24.7853 24.1937 24.4638 23.7971 24.4638Z" fill="white"/>
<path d="M23.5242 0H4.0603C1.82152 0 0 1.82142 0 4.0603V11.7444C0 12.1409 0.321467 12.4624 0.717965 12.4624C1.11446 12.4624 1.43593 12.1409 1.43593 11.7444V4.0603C1.43593 2.61327 2.61317 1.43603 4.06021 1.43603H23.5242C24.9711 1.43603 26.1484 2.61327 26.1484 4.0603V44.9399C26.1484 46.3868 24.9711 47.5642 23.5242 47.5642H4.0603C2.61336 47.5642 1.43603 46.3869 1.43603 44.9399V14.6164C1.43603 14.2199 1.11456 13.8984 0.71806 13.8984C0.321562 13.8984 9.56506e-05 14.2199 9.56506e-05 14.6164V44.9398C9.56506e-05 47.1786 1.82152 49 4.0604 49H23.5242C25.763 49 27.5843 47.1786 27.5843 44.9398V4.0603C27.5843 1.82142 25.7629 0 23.5242 0Z" fill="white"/>
</svg>
