<svg width="43" height="29" viewBox="0 0 43 29" fill="none" xmlns="http://www.w3.org/2000/svg">
<path d="M41.0451 7.49632H22.9657C22.9647 7.18932 22.8671 6.89042 22.6869 6.64193C22.5066 6.39344 22.2528 6.20796 21.9613 6.11173C21.8419 4.75494 21.1615 3.58656 18.0794 3.58656C16.1249 3.58656 16.1249 3.11836 16.1249 1.14784C16.1249 1.01822 16.0734 0.893914 15.9817 0.802261C15.8901 0.710608 15.7658 0.659119 15.6362 0.659119C15.5066 0.659119 15.3823 0.710608 15.2907 0.802261C15.1991 0.893914 15.1476 1.01822 15.1476 1.14784C15.1476 3.05629 15.1476 4.564 18.0794 4.564C20.5524 4.564 20.922 5.32924 20.9888 6.12717C20.7092 6.23094 20.4679 6.41765 20.2972 6.66233C20.1266 6.90701 20.0347 7.19799 20.0339 7.49632H1.95453C1.43632 7.49686 0.939496 7.703 0.573068 8.06949C0.206641 8.43599 0.000543261 8.9329 0 9.4512V27.0451C0.000543261 27.5634 0.206641 28.0604 0.573068 28.4269C0.939496 28.7934 1.43632 28.9995 1.95453 29H41.0451C41.5633 28.9995 42.0601 28.7934 42.4265 28.4269C42.793 28.0604 42.9991 27.5634 42.9996 27.0451C42.9975 25.4368 43.0011 18.5252 42.9996 16.782V9.4512C42.9991 8.9329 42.793 8.43599 42.4265 8.06949C42.0601 7.703 41.5633 7.49686 41.0451 7.49632ZM25.8975 24.1128V21.1805H28.8293V24.1128H25.8975ZM21.9884 24.1128V21.1805H24.9202V24.1128H21.9884ZM18.0794 24.1128V21.1805H21.0112V24.1128H18.0794ZM14.1703 24.1128V21.1805H17.1021V24.1128H14.1703ZM10.2613 24.1128V21.1805H13.1931V24.1128H10.2613ZM0.977264 24.1128V21.1805H5.37495V24.1128H0.977264ZM10.2613 13.361V16.2933H7.32948V13.361H10.2613ZM14.1703 13.361V16.2933H11.2385V13.361H14.1703ZM18.0794 13.361V16.2933H15.1476V13.361H18.0794ZM21.9884 13.361V16.2933H19.0566V13.361H21.9884ZM25.8975 13.361V16.2933H22.9657V13.361H25.8975ZM29.8066 13.361V16.2933H26.8748V13.361H29.8066ZM33.7156 13.361V16.2933H30.7838V13.361H33.7156ZM42.0224 13.361V16.2933H34.6929V13.361H42.0224ZM33.7156 24.1128V21.1805H37.136V24.1128H33.7156ZM28.8293 20.2031V17.2707H31.7611V20.2031H28.8293ZM24.9202 20.2031V17.2707H27.852V20.2031H24.9202ZM21.0112 20.2031V17.2707H23.943V20.2031H21.0112ZM17.1021 20.2031V17.2707H20.0339V20.2031H17.1021ZM13.1931 20.2031V17.2707H16.1249V20.2031H13.1931ZM9.28401 20.2031V17.2707H12.2158V20.2031H9.28401ZM0.977264 20.2031V17.2707H8.30674V20.2031H0.977264ZM37.136 20.2031H32.7383V17.2707H37.136V20.2031ZM6.35222 16.2933H0.977264V13.361H6.35222V16.2933ZM6.35222 21.1805H9.28401V24.1128H6.35222V21.1805ZM12.2158 25.0903V28.0226H8.79538V25.0903H12.2158ZM29.8066 21.1805H32.7383V24.1128H29.8066V21.1805ZM34.2042 25.0903V28.0226H30.7838V25.0903H34.2042ZM35.1815 25.0903H38.1133V28.0226H35.1815V25.0903ZM38.1133 24.1128V17.2707H42.0224V24.1128H38.1133ZM21.4998 7.0076C21.6294 7.00772 21.7536 7.05924 21.8452 7.15087C21.9368 7.2425 21.9883 7.36674 21.9884 7.49632H21.0112C21.0113 7.36674 21.0628 7.2425 21.1544 7.15087C21.246 7.05924 21.3703 7.00772 21.4998 7.0076ZM1.95453 8.47376H41.0451C41.3042 8.47406 41.5526 8.57714 41.7358 8.76038C41.919 8.94362 42.0221 9.19206 42.0224 9.4512V12.3835H0.977264V9.4512C0.977561 9.19206 1.08062 8.94362 1.26383 8.76038C1.44703 8.57714 1.69543 8.47406 1.95453 8.47376ZM0.977264 27.0451V25.0903H7.81811V28.0226H1.95453C1.69543 28.0223 1.44703 27.9192 1.26383 27.736C1.08062 27.5527 0.977561 27.3043 0.977264 27.0451ZM13.1931 28.0226V25.0903H29.8066V28.0226H13.1931ZM41.0451 28.0226H39.0906V25.0903H42.0224V27.0451C42.0221 27.3043 41.919 27.5527 41.7358 27.736C41.5526 27.9192 41.3042 28.0223 41.0451 28.0226Z" fill="white"/>
<path d="M38.6024 11.4091C38.732 11.4091 38.8563 11.3576 38.9479 11.266C39.0395 11.1744 39.091 11.0501 39.091 10.9205C39.091 10.7909 39.0395 10.6666 38.9479 10.575C38.8563 10.4833 38.732 10.4318 38.6024 10.4318C38.4728 10.4318 38.3485 10.4833 38.2569 10.575C38.1652 10.6666 38.1137 10.7909 38.1137 10.9205C38.1137 11.0501 38.1652 11.1744 38.2569 11.266C38.3485 11.3576 38.4728 11.4091 38.6024 11.4091Z" fill="white"/>
<path d="M36.1593 11.4091C36.4184 11.4091 36.667 11.3576 36.8503 11.266C37.0336 11.1744 37.1365 11.0501 37.1365 10.9205C37.1365 10.7909 37.0336 10.6666 36.8503 10.575C36.667 10.4833 36.4184 10.4318 36.1593 10.4318C35.9001 10.4318 35.6515 10.4833 35.4682 10.575C35.2849 10.6666 35.182 10.7909 35.182 10.9205C35.182 11.0501 35.2849 11.1744 35.4682 11.266C35.6515 11.3576 35.9001 11.4091 36.1593 11.4091Z" fill="white"/>
<path d="M33.2275 11.4091C33.4867 11.4091 33.7353 11.3576 33.9186 11.266C34.1018 11.1744 34.2048 11.0501 34.2048 10.9205C34.2048 10.7909 34.1018 10.6666 33.9186 10.575C33.7353 10.4833 33.4867 10.4318 33.2275 10.4318C32.9683 10.4318 32.7198 10.4833 32.5365 10.575C32.3532 10.6666 32.2502 10.7909 32.2502 10.9205C32.2502 11.0501 32.3532 11.1744 32.5365 11.266C32.7198 11.3576 32.9683 11.4091 33.2275 11.4091Z" fill="white"/>
<path d="M4.35355 11.4091H8.35148C8.46929 11.4091 8.58228 11.3576 8.66559 11.266C8.74889 11.1744 8.7957 11.0501 8.7957 10.9205C8.7957 10.7909 8.74889 10.6666 8.66559 10.575C8.58228 10.4833 8.46929 10.4318 8.35148 10.4318H4.35355C4.23573 10.4318 4.12275 10.4833 4.03944 10.575C3.95613 10.6666 3.90933 10.7909 3.90933 10.9205C3.90933 11.0501 3.95613 11.1744 4.03944 11.266C4.12275 11.3576 4.23573 11.4091 4.35355 11.4091Z" fill="white"/>
</svg>
