<svg width="33" height="33" viewBox="0 0 33 33" fill="none" xmlns="http://www.w3.org/2000/svg">
<path d="M32.8361 22.8081V19.8393C32.8361 19.8393 32.8372 19.8365 32.8372 19.8349C32.8372 19.8332 32.8361 19.8321 32.8361 19.8305V2.13946C32.8361 0.956984 31.8791 0 30.7021 0H2.13561C0.958634 0 0.00164998 0.956984 0.00164998 2.13946V19.8283C0.00164998 19.8283 0 19.8327 0 19.8354C0 19.8382 0.00109999 19.8398 0.00164998 19.8426V22.8087C0.00164998 23.9857 0.958634 24.9426 2.13561 24.9426H10.325L8.44951 29.5186V29.5197H7.35558C6.39584 29.5197 5.61541 30.3001 5.61541 31.2598C5.61541 32.2196 6.39584 33 7.35558 33H25.4822C26.4419 33 27.2223 32.2196 27.2223 31.2598C27.2223 30.3001 26.4419 29.5197 25.4822 29.5197H24.3888V29.5186L22.5128 24.9426H30.7021C31.8791 24.9426 32.8361 23.9851 32.8361 22.8081ZM1.10163 2.13946C1.10163 1.56747 1.56362 1.09998 2.13561 1.09998H30.7021C31.2741 1.09998 31.7361 1.56747 31.7361 2.13946V19.2849H1.10163V2.13946ZM25.4822 30.6191C25.8353 30.6191 26.1224 30.9062 26.1224 31.2593C26.1224 31.6124 25.8353 31.8995 25.4822 31.8995H7.35558C7.00248 31.8995 6.71539 31.6124 6.71539 31.2593C6.71539 30.9062 7.00248 30.6191 7.35558 30.6191H25.4822ZM22.7053 28.308L23.2003 29.518H9.63749L11.5075 24.9421L22.7053 28.308ZM21.6988 23.8421H2.13561C1.56362 23.8421 1.10163 23.3801 1.10163 22.8081V20.3849H31.7361V22.8081C31.7361 23.3801 31.2741 23.8421 30.7021 23.8421H21.6988Z" fill="white"/>
<path d="M18.3083 21.4672H14.5293C14.2251 21.4672 13.9793 21.7136 13.9793 22.0172C13.9793 22.3208 14.2251 22.5672 14.5293 22.5672H18.3083C18.6124 22.5672 18.8582 22.3208 18.8582 22.0172C18.8582 21.7136 18.6124 21.4672 18.3083 21.4672Z" fill="white"/>
<path d="M18.7258 6.94858C18.5107 6.73353 18.1631 6.73353 17.9481 6.94858L12.9179 11.9782C12.7028 12.1933 12.7028 12.5409 12.9179 12.7559C13.0251 12.8632 13.1659 12.9171 13.3067 12.9171C13.4475 12.9171 13.5883 12.8632 13.6956 12.7559L18.7258 7.72626C18.9408 7.51122 18.9408 7.16362 18.7258 6.94858Z" fill="white"/>
<path d="M19.1419 10.0813L16.0504 13.1728C15.8354 13.3879 15.8354 13.7355 16.0504 13.9505C16.1577 14.0578 16.2985 14.1117 16.4393 14.1117C16.5801 14.1117 16.7209 14.0578 16.8281 13.9505L19.9196 10.859C20.1346 10.644 20.1346 10.2964 19.9196 10.0813C19.7046 9.86628 19.357 9.86628 19.1419 10.0813Z" fill="white"/>
</svg>
