<svg width="33" height="35" viewBox="0 0 33 35" fill="none" xmlns="http://www.w3.org/2000/svg">
<path d="M16.5 0C14.1814 0 11.9378 0.477421 9.83113 1.41907C7.79707 2.32825 5.99052 3.62311 4.4616 5.26756C4.26991 5.47373 4.28036 5.79748 4.48494 5.99073C4.68952 6.18412 5.01077 6.17332 5.20253 5.96722C8.12375 2.82529 12.2416 1.02327 16.5 1.02327C25.0382 1.02327 31.9846 8.02374 31.9846 16.6284C31.9846 20.4004 30.6335 26.0424 28.5426 31.0021C28.4313 31.2661 28.1754 31.4367 27.8909 31.4367C27.7961 31.4367 27.7033 31.4175 27.6147 31.3796C27.5848 31.3668 27.5565 31.3519 27.5291 31.3355L29.8288 24.6555C30.0205 24.0984 29.9673 23.4859 29.6912 22.9735C30.2657 20.5621 30.5696 18.3691 30.5696 16.6283C30.5696 15.3795 30.4065 14.1373 30.0848 12.9362C30.0826 12.9282 30.0803 12.9202 30.0778 12.9123C29.2455 10.3162 27.461 7.98053 25.053 6.33547C22.5778 4.6446 19.6202 3.7508 16.5 3.7508C13.3797 3.7508 10.4221 4.6446 7.94691 6.3356C5.5389 7.98067 3.7544 10.3164 2.92217 12.9124C2.91966 12.9204 2.91729 12.9284 2.91512 12.9364C2.59346 14.1374 2.43033 15.3796 2.43033 16.6285C2.43033 18.3711 2.73442 20.5615 3.30895 22.9732C3.03267 23.4856 2.97929 24.0983 3.17105 24.6556L5.47073 31.3356C5.44339 31.3519 5.41497 31.3668 5.38513 31.3796C5.02616 31.5335 4.60988 31.364 4.45726 31.0022C2.36643 26.0424 1.01537 20.4004 1.01537 16.6284C1.01537 13.389 1.99539 10.2805 3.84956 7.6386C4.01148 7.40789 3.95721 7.08858 3.72828 6.92548C3.49928 6.76223 3.18244 6.81699 3.02066 7.0477C1.04447 9.86328 0 13.1763 0 16.6284C0 20.527 1.38281 26.3261 3.52289 31.4023C3.80127 32.0626 4.44024 32.4596 5.11089 32.4596C5.33527 32.4596 5.56312 32.4151 5.78214 32.3213C5.79028 32.3179 5.79815 32.3138 5.80622 32.3101L6.00836 32.8973C6.22657 33.5312 6.73782 34.0236 7.37604 34.2146L9.66976 34.901C9.89014 34.967 10.1155 34.9999 10.3407 34.9999C10.6009 34.9999 10.8607 34.9559 11.1116 34.8681L13.1817 34.1398C13.9209 33.8814 14.3695 33.404 14.7109 32.6944C15.0522 31.9848 15.099 31.1838 14.8426 30.4388L11.6179 21.0719C11.0885 19.5341 9.41594 18.7169 7.89014 19.2504L5.96651 19.923C5.4982 20.0867 5.09983 20.389 4.81433 20.7971L4.09138 21.8302C3.66811 19.8561 3.44556 18.0743 3.44556 16.6284C3.44556 15.4737 3.59574 14.3255 3.89209 13.2152C5.4921 8.24454 10.6746 4.77407 16.5 4.77407C22.3253 4.77407 27.5078 8.24454 29.1078 13.2152C29.4041 14.3256 29.5543 15.4738 29.5543 16.6284C29.5543 18.0725 29.3318 19.8559 28.9086 21.8303L28.1857 20.7973C27.9001 20.3891 27.5017 20.0868 27.0334 19.923L25.1098 19.2504C23.5836 18.717 21.9115 19.5342 21.3821 21.072L18.1574 30.4389C17.9009 31.1838 17.9477 31.9849 18.289 32.6945C18.6303 33.404 19.2255 33.9372 19.9647 34.1956L21.8882 34.8682C22.1392 34.9559 22.3989 35 22.6592 35C22.8842 34.9999 23.1097 34.9671 23.3301 34.9011L25.6238 34.2146C26.262 34.0236 26.7733 33.5312 26.9915 32.8974L27.1936 32.3102C27.2017 32.3138 27.2096 32.3179 27.2177 32.3214C27.4325 32.4134 27.659 32.46 27.8909 32.46C28.5836 32.46 29.2062 32.0449 29.4772 31.4023C31.6172 26.3262 33 20.527 33 16.6285C32.9999 7.45943 25.5981 0 16.5 0ZM5.64418 21.3868C5.8065 21.1548 6.03312 20.9829 6.29943 20.8898L8.22299 20.2172C8.42994 20.1449 8.64096 20.1105 8.84866 20.1105C9.64147 20.1105 10.3845 20.6111 10.6587 21.4073L13.8834 30.7742C14.0509 31.261 14.0204 31.7844 13.7974 32.248C13.5743 32.7116 13.1855 33.06 12.7025 33.2288L11.2585 33.7337L7.38954 22.4951C7.29763 22.2282 7.0084 22.0869 6.74352 22.1794C6.47857 22.2721 6.33836 22.5635 6.43027 22.8305L10.2667 33.9743C10.1633 33.9685 10.0603 33.9505 9.95899 33.9202L7.66528 33.2337C7.33982 33.1363 7.07915 32.8852 6.9679 32.562L4.13052 24.3203C4.01928 23.997 4.06961 23.6371 4.26523 23.3575L5.64418 21.3868ZM26.0322 32.562C25.921 32.8851 25.6602 33.1363 25.3349 33.2337L23.0411 33.9201C22.9399 33.9504 22.8368 33.9685 22.7335 33.9743L23.5715 31.5399C23.6634 31.2729 23.5232 30.9814 23.2583 30.8888C22.9934 30.7962 22.7042 30.9375 22.6122 31.2045L21.7416 33.7337L20.2976 33.2288C19.8145 33.06 19.4257 32.7116 19.2027 32.248C18.9797 31.7844 18.9492 31.261 19.1167 30.7742L22.3414 21.4073C22.6155 20.611 23.3585 20.1105 24.1514 20.1105C24.359 20.1105 24.5701 20.1449 24.7771 20.2172L26.2209 20.7221L23.3302 29.1188C23.2383 29.3857 23.3785 29.6772 23.6435 29.7698C23.9082 29.8624 24.1977 29.7211 24.2895 29.4542L27.1475 21.1523C27.2251 21.2214 27.295 21.2999 27.3558 21.3869L28.7349 23.3575C28.9305 23.6371 28.9809 23.997 28.8696 24.3202L26.0322 32.562Z" fill="white"/>
</svg>
