<svg width="34" height="35" viewBox="0 0 34 35" fill="none" xmlns="http://www.w3.org/2000/svg">
<path d="M18.7586 0C16.1833 0.00122433 13.6503 0.650964 11.3953 1.88871C9.14033 3.12645 7.23683 4.91194 5.86206 7.07888V4.08333C5.86206 3.92862 5.8003 3.78025 5.69036 3.67086C5.58043 3.56146 5.43132 3.5 5.27585 3.5V0.583333C5.27585 0.428624 5.21409 0.280252 5.10416 0.170856C4.99422 0.0614601 4.84512 1.54707e-06 4.68965 0H1.17241C1.01694 1.74045e-06 0.867838 0.0614604 0.757903 0.170856C0.647969 0.280252 0.586207 0.428624 0.586206 0.583333V3.5C0.430735 3.5 0.281632 3.56146 0.171698 3.67086C0.0617631 3.78025 1.74902e-06 3.92862 0 4.08333V9.91666C1.74902e-06 10.0714 0.0617631 10.2197 0.171698 10.3291C0.281632 10.4385 0.430735 10.5 0.586206 10.5H1.17241V13.4167H0.586206C0.430735 13.4167 0.281632 13.4781 0.171698 13.5875C0.0617631 13.6969 1.74902e-06 13.8453 0 14V16.3333C1.74902e-06 16.488 0.0617631 16.6364 0.171698 16.7458C0.281632 16.8552 0.430735 16.9167 0.586206 16.9167H1.17241V18.6667C1.17241 21.8971 2.13506 25.055 3.93863 27.741C5.7422 30.427 8.30568 32.5205 11.3049 33.7567C14.3041 34.9929 17.6044 35.3164 20.7884 34.6861C23.9723 34.0559 26.897 32.5003 29.1925 30.216C30.7214 28.7029 31.9336 26.903 32.7588 24.9205C33.584 22.9381 34.0058 20.8124 33.9999 18.6667V15.1667C33.9999 6.80375 27.1627 0 18.7586 0ZM4.6857 9.33333H1.17241V4.66667H4.68965V9.32388L4.6857 9.33333ZM1.75862 1.16667H4.10344V3.5H1.75862V1.16667ZM2.34482 10.5H3.51724V13.4167H2.34482V10.5ZM1.17241 14.5833H7.03447V15.75H1.17241V14.5833ZM4.68965 16.9167H5.86206V18.6667C5.86206 25.0997 11.1215 30.3333 17.5862 30.3333C24.0509 30.3333 29.3103 25.0997 29.3103 18.6667V15.75C29.3091 14.6674 28.8763 13.6295 28.1071 12.864C27.3378 12.0985 26.2948 11.6679 25.2069 11.6667H23.4482V10.5H25.2069C26.6056 10.5016 27.9466 11.0552 28.9357 12.0394C29.9248 13.0236 30.4811 14.3581 30.4827 15.75V18.6667C30.4827 25.743 24.6974 31.5 17.5862 31.5C10.475 31.5 4.68965 25.743 4.68965 18.6667V16.9167ZM25.2069 9.33333H23.4482V8.75C23.4482 8.59529 23.3865 8.44692 23.2765 8.33752C23.1666 8.22812 23.0175 8.16667 22.862 8.16667H17C16.8445 8.16667 16.6954 8.22812 16.5855 8.33752C16.4755 8.44692 16.4138 8.59529 16.4138 8.75H13.4827C13.3273 8.75 13.1782 8.81146 13.0682 8.92085C12.9583 9.03025 12.8965 9.17862 12.8965 9.33333V12.8333C12.8965 12.988 12.9583 13.1364 13.0682 13.2458C13.1782 13.3552 13.3273 13.4167 13.4827 13.4167H16.4138C16.4138 13.5714 16.4755 13.7197 16.5855 13.8291C16.6954 13.9385 16.8445 14 17 14H22.862C23.0175 14 23.1666 13.9385 23.2765 13.8291C23.3865 13.7197 23.4482 13.5714 23.4482 13.4167V12.8333H25.2069C25.9839 12.8342 26.7289 13.1418 27.2784 13.6886C27.8279 14.2354 28.137 14.9767 28.1379 15.75V18.6667C28.1379 24.4564 23.4044 29.1667 17.5862 29.1667C11.7679 29.1667 7.03447 24.4564 7.03447 18.6667V16.9167H7.62068C7.77615 16.9167 7.92525 16.8552 8.03518 16.7458C8.14512 16.6364 8.20688 16.488 8.20688 16.3333V14C8.20688 13.8453 8.14512 13.6969 8.03518 13.5875C7.92525 13.4781 7.77615 13.4167 7.62068 13.4167H7.16619C7.58726 10.6573 8.98831 8.13952 11.1152 6.3201C13.2421 4.50067 15.9538 3.50014 18.7586 3.5C23.8451 3.5 28.1848 6.74043 29.8042 11.2555C29.2052 10.6466 28.4899 10.1628 27.7005 9.83276C26.911 9.50268 26.0632 9.33288 25.2069 9.33333ZM16.4138 12.25H14.0689V9.91666H16.4138V12.25ZM17.5862 9.33333H22.2758V12.8333H17.5862V9.33333ZM32.8275 18.6667C32.8275 27.0296 25.9903 33.8333 17.5862 33.8333C9.18208 33.8333 2.34482 27.0296 2.34482 18.6667V16.9167H3.51724V18.6667C3.51724 26.3863 9.82854 32.6667 17.5862 32.6667C25.3438 32.6667 31.6551 26.3863 31.6551 18.6667V15.1667C31.6551 8.09033 25.8698 2.33333 18.7586 2.33333C15.6428 2.33346 12.6324 3.45593 10.2837 5.49329C7.93503 7.53065 6.40687 10.3452 5.98164 13.4167H4.79872C5.22757 10.0334 6.88236 6.92223 9.45258 4.66683C12.0228 2.41142 15.3318 1.16686 18.7586 1.16667C26.5162 1.16667 32.8275 7.44704 32.8275 15.1667V18.6667Z" fill="white"/>
</svg>
