<svg width="42" height="31" viewBox="0 0 42 31" fill="none" xmlns="http://www.w3.org/2000/svg">
<path d="M39.2667 5.51114H6.88886V2.06667C6.88886 0.925318 5.96354 0 4.8222 0H2.06667C0.925318 0 0 0.925318 0 2.06667C0 3.20802 0.925318 4.13333 2.06667 4.13333H2.75553V6.88886H1.3778C0.616852 6.88886 0 7.50571 0 8.26667V12.4C0 13.161 0.616852 13.7778 1.3778 13.7778H2.75561V15.1556H1.3778C0.616852 15.1555 0 15.7724 0 16.5333V24.1111C0 24.8721 0.616852 25.4889 1.3778 25.4889H2.75561V28.9333C2.75561 30.0747 3.68093 31 4.82228 31C5.96362 31 6.88894 30.0747 6.88894 28.9333V27.5555H8.26667V28.9333C8.26667 29.6943 8.88352 30.3111 9.64447 30.3111H18.6C19.361 30.3111 19.9778 29.6943 19.9778 28.9333V27.5555H21.3556V28.9333C21.3556 29.6943 21.9725 30.3111 22.7334 30.3111H38.5779C39.3388 30.3111 39.9557 29.6943 39.9557 28.9333V27.4288C40.7785 27.1379 41.3299 26.3615 41.3335 25.4889V7.57781C41.3333 6.43638 40.4081 5.51114 39.2667 5.51114ZM1.3778 12.4V8.26667H2.75561V12.4H1.3778ZM1.3778 24.1111V16.5333H2.75561V24.1111H1.3778ZM5.51114 28.9333C5.51114 29.3138 5.20267 29.6222 4.82228 29.6222C4.44188 29.6222 4.13341 29.3138 4.13341 28.9333V3.44447C4.13341 3.06399 3.82495 2.75561 3.44455 2.75561H2.06667C1.68619 2.75561 1.3778 2.44714 1.3778 2.06675C1.3778 1.68635 1.68627 1.37789 2.06667 1.37789H4.8222C5.20267 1.37789 5.51106 1.68635 5.51106 2.06675L5.51114 28.9333ZM9.64447 27.5555H11.7111V28.9333H9.64447V27.5555ZM13.0889 28.9333V27.5555H15.1555V28.9333H13.0889ZM18.6 28.9333H16.5333V27.5555H18.6V28.9333ZM22.7333 27.5555H24.8V28.9333H22.7333V27.5555ZM26.1778 27.5555H28.2445V28.9333H26.1778V27.5555ZM29.6222 28.9333V27.5555H31.6889V28.9333H29.6222ZM33.0667 28.9333V27.5555H35.1333V28.9333H33.0667ZM38.5778 28.9333H36.5111V27.5555H38.5778V28.9333ZM39.9555 25.4889C39.9555 25.8693 39.6471 26.1777 39.2667 26.1777H6.88886V6.88886H39.2667C39.6471 6.88886 39.9555 7.19733 39.9555 7.57772V25.4889Z" fill="white"/>
<path d="M16.5336 13.0889C17.2946 13.0889 17.9114 13.7057 17.9114 14.4667C17.9114 14.8472 18.2198 15.1555 18.6003 15.1555C18.9807 15.1555 19.2891 14.8471 19.2891 14.4667C19.2891 12.9449 18.0554 11.7112 16.5336 11.7112C15.0118 11.7112 13.7781 12.9449 13.7781 14.4667V18.6C13.7781 20.1218 15.0118 21.3555 16.5336 21.3555C18.0554 21.3555 19.2891 20.1218 19.2891 18.6V17.2222C19.2891 16.8417 18.9807 16.5333 18.6003 16.5333H17.2225C16.842 16.5333 16.5336 16.8417 16.5336 17.2222C16.5336 17.6027 16.842 17.9111 17.2225 17.9111H17.9113V18.5999C17.9113 19.3609 17.2945 19.9777 16.5335 19.9777C15.7726 19.9777 15.1557 19.3609 15.1557 18.5999V14.4666C15.1558 13.7057 15.7727 13.0889 16.5336 13.0889Z" fill="white"/>
<path d="M23.4222 11.7112H21.3555C20.9751 11.7112 20.6667 12.0196 20.6667 12.4V20.6667C20.6667 21.0472 20.9752 21.3555 21.3555 21.3555C21.7359 21.3555 22.0444 21.0471 22.0444 20.6667V17.2222H23.4222C24.944 17.2222 26.1777 15.9885 26.1777 14.4667C26.1777 12.9449 24.9441 11.7112 23.4222 11.7112ZM23.4222 15.8445H22.0444V13.089H23.4222C24.1832 13.089 24.8 13.7058 24.8 14.4668C24.8 15.2277 24.1832 15.8445 23.4222 15.8445Z" fill="white"/>
<path d="M32.3783 11.7112C31.9979 11.7112 31.6895 12.0196 31.6895 12.4V18.6C31.6895 19.361 31.0726 19.9778 30.3117 19.9778C29.5507 19.9778 28.9339 19.361 28.9339 18.6V12.4C28.9339 12.0195 28.6254 11.7112 28.245 11.7112C27.8645 11.7112 27.5562 12.0196 27.5562 12.4V18.6C27.5562 20.1218 28.7899 21.3555 30.3117 21.3555C31.8335 21.3555 33.0672 20.1218 33.0672 18.6V12.4C33.0672 12.0195 32.7588 11.7112 32.3783 11.7112Z" fill="white"/>
<path d="M11.022 8.26666H8.95534C8.57486 8.26666 8.26648 8.57513 8.26648 8.95552V11.0222C8.26648 11.4027 8.57495 11.7111 8.95534 11.7111C9.33582 11.7111 9.6442 11.4026 9.6442 11.0222V9.64439H11.022C11.4025 9.64439 11.7109 9.33592 11.7109 8.95552C11.711 8.57513 11.4025 8.26666 11.022 8.26666Z" fill="white"/>
</svg>
