<svg width="36" height="36" viewBox="0 0 36 36" fill="none" xmlns="http://www.w3.org/2000/svg">
<mask id="mask0_3857_1904" style="mask-type:luminance" maskUnits="userSpaceOnUse" x="0" y="0" width="36" height="36">
<path d="M0 0H36V36H0V0Z" fill="white"/>
</mask>
<g mask="url(#mask0_3857_1904)">
<path d="M30.8536 35.4726H5.14734C4.52599 35.4726 4.02234 34.969 4.02234 34.3476V2.7773C4.02234 1.53467 5.02971 0.527298 6.27234 0.527298H29.7286C30.9712 0.527298 31.9786 1.53467 31.9786 2.7773V34.3476C31.9786 34.969 31.4749 35.4726 30.8536 35.4726Z" stroke="white" stroke-miterlimit="10" stroke-linecap="round" stroke-linejoin="round"/>
<path d="M4.02234 31.9781C4.02234 31.3348 4.54385 30.8133 5.18714 30.8133H30.8137C31.4571 30.8133 31.9786 31.3348 31.9786 31.9781" stroke="white" stroke-miterlimit="10" stroke-linecap="round" stroke-linejoin="round"/>
<path d="M29.6489 33.1429H28.4841" stroke="white" stroke-miterlimit="10" stroke-linecap="round" stroke-linejoin="round"/>
<path d="M26.1538 33.1429H24.9889" stroke="white" stroke-miterlimit="10" stroke-linecap="round" stroke-linejoin="round"/>
<path d="M6.35144 30.8133V35.4727" stroke="white" stroke-miterlimit="10" stroke-linecap="round" stroke-linejoin="round"/>
<path d="M8.68146 30.8133V35.4727" stroke="white" stroke-miterlimit="10" stroke-linecap="round" stroke-linejoin="round"/>
<path d="M11.011 30.8133V35.4727" stroke="white" stroke-miterlimit="10" stroke-linecap="round" stroke-linejoin="round"/>
<path d="M21.4944 35.4726V33.7254C21.4944 33.4037 21.2336 33.1429 20.912 33.1429H15.0878C14.7662 33.1429 14.5054 33.4037 14.5054 33.7254V35.4726" stroke="white" stroke-miterlimit="10" stroke-linecap="round" stroke-linejoin="round"/>
<path d="M6.35144 2.85706H6.93384" stroke="white" stroke-miterlimit="10" stroke-linecap="round" stroke-linejoin="round"/>
<path d="M29.0661 2.85706H29.6485" stroke="white" stroke-miterlimit="10" stroke-linecap="round" stroke-linejoin="round"/>
<path d="M6.35144 28.4836H6.93384" stroke="white" stroke-miterlimit="10" stroke-linecap="round" stroke-linejoin="round"/>
<path d="M29.0661 28.4836H29.6485" stroke="white" stroke-miterlimit="10" stroke-linecap="round" stroke-linejoin="round"/>
<path d="M24.5065 2.85705H18.1116C11.6609 2.85705 6.3525 8.05286 6.35144 14.5036C6.35102 17.127 7.21811 19.5478 8.68117 21.4952V22.077C8.68117 22.3986 8.42039 22.6594 8.09871 22.6594H6.93391C6.61223 22.6594 6.35144 22.9202 6.35144 23.2418V25.5715C6.35144 25.8931 6.61223 26.1539 6.93391 26.1539H8.68117C9.00278 26.1539 9.26357 26.4146 9.26357 26.7363V27.9012C9.26357 28.2228 9.52429 28.4836 9.84597 28.4836H26.1538C26.4754 28.4836 26.7362 28.2228 26.7362 27.9012V26.7363C26.7362 26.4146 26.9969 26.1539 27.3186 26.1539H29.0659C29.3876 26.1539 29.6483 25.8931 29.6483 25.5715V7.99886C29.6483 7.68991 29.5256 7.39368 29.3071 7.17522L25.3301 3.1982C25.1117 2.97974 24.8154 2.85705 24.5065 2.85705Z" stroke="white" stroke-miterlimit="10" stroke-linecap="round" stroke-linejoin="round"/>
<path d="M13.8484 22.8505C10.7855 21.3237 8.68146 18.1603 8.68146 14.5054C8.68146 9.35883 12.8536 5.18669 18.0002 5.18669C23.1468 5.18669 27.319 9.35883 27.319 14.5054C27.319 19.6521 23.1468 23.8242 18.0002 23.8242C17.7243 23.8242 17.4512 23.8123 17.1813 23.7888" stroke="white" stroke-miterlimit="10" stroke-linecap="round" stroke-linejoin="round"/>
<path d="M19.1651 14.5054C19.1651 15.1487 18.6436 15.6702 18.0003 15.6702C17.357 15.6702 16.8354 15.1487 16.8354 14.5054C16.8354 13.8621 17.357 13.3406 18.0003 13.3406C18.6436 13.3406 19.1651 13.8621 19.1651 14.5054Z" stroke="white" stroke-miterlimit="10" stroke-linecap="round" stroke-linejoin="round"/>
<path d="M21.4944 14.5055C21.4944 16.4355 19.9299 18 17.9999 18C16.0699 18 14.5054 16.4355 14.5054 14.5055C14.5054 12.5755 16.0699 11.0109 17.9999 11.0109C19.9299 11.0109 21.4944 12.5755 21.4944 14.5055Z" stroke="white" stroke-miterlimit="10" stroke-linecap="round" stroke-linejoin="round"/>
<path d="M11.6549 23.9472L20.9737 19.2878C21.549 19.0002 22.2488 19.2333 22.5365 19.8088C22.8242 20.3841 22.591 21.0838 22.0156 21.3715L12.6968 26.0309" stroke="white" stroke-miterlimit="10" stroke-linecap="round" stroke-linejoin="round"/>
<path d="M13.3412 24.9891C13.3412 25.6324 12.8197 26.1539 12.1763 26.1539C11.533 26.1539 11.0115 25.6324 11.0115 24.9891C11.0115 24.3457 11.533 23.8242 12.1763 23.8242C12.8197 23.8242 13.3412 24.3457 13.3412 24.9891Z" stroke="white" stroke-miterlimit="10" stroke-linecap="round" stroke-linejoin="round"/>
<path d="M23.8244 28.4836H18.0002V26.7164C18.0002 26.4058 18.252 26.1539 18.5627 26.1539H23.2619C23.5725 26.1539 23.8244 26.4058 23.8244 26.7164V28.4836Z" stroke="white" stroke-miterlimit="10" stroke-linecap="round" stroke-linejoin="round"/>
<path d="M26.7365 21.4945H27.3189" stroke="white" stroke-miterlimit="10" stroke-linecap="round" stroke-linejoin="round"/>
<path d="M26.7365 23.8242H27.3189" stroke="white" stroke-miterlimit="10" stroke-linecap="round" stroke-linejoin="round"/>
</g>
</svg>
