<svg width="53" height="38" viewBox="0 0 53 38" fill="none" xmlns="http://www.w3.org/2000/svg">
<path d="M46.0676 25.9117V4.28129C46.0676 3.79936 45.6774 3.40822 45.1946 3.40822H7.84878C7.36597 3.40822 6.97571 3.79936 6.97571 4.28129V25.9108C6.97571 26.3928 7.36597 26.7839 7.84878 26.7839H45.1946C45.6774 26.7839 46.0676 26.3937 46.0676 25.9117ZM44.3215 25.0386H8.72186V5.15437H44.3215V25.0386Z" fill="white"/>
<path d="M38.2383 32.0896H37.3094C36.8265 32.0896 36.4363 32.4808 36.4363 32.9627C36.4363 33.4446 36.8265 33.8358 37.3094 33.8358H38.2383C38.7211 33.8358 39.1114 33.4446 39.1114 32.9627C39.1114 32.4808 38.7211 32.0896 38.2383 32.0896Z" fill="white"/>
<path d="M42.0684 32.0896H41.1394C40.6566 32.0896 40.2664 32.4808 40.2664 32.9627C40.2664 33.4446 40.6566 33.8358 41.1394 33.8358H42.0684C42.5512 33.8358 42.9415 33.4446 42.9415 32.9627C42.9415 32.4808 42.5512 32.0896 42.0684 32.0896Z" fill="white"/>
<path d="M45.8975 32.0896H44.9686C44.4858 32.0896 44.0955 32.4808 44.0955 32.9627C44.0955 33.4446 44.4858 33.8358 44.9686 33.8358H45.8975C46.3803 33.8358 46.7706 33.4446 46.7706 32.9627C46.7706 32.4808 46.3803 32.0896 45.8975 32.0896Z" fill="white"/>
<path d="M52.0387 28.5755H49.4326V2.90098C49.4326 1.45168 48.2531 0.272156 46.8029 0.272156H6.24161C4.79144 0.272156 3.61191 1.45168 3.61191 2.90098V28.5764H1.00491C0.5221 28.5764 0.131836 28.9675 0.131836 29.4494V31.2663C0.131836 34.6207 2.86107 37.349 6.21542 37.349H46.8282C50.1826 37.349 52.9118 34.6207 52.9118 31.2663V29.4494C52.9118 28.9675 52.5216 28.5755 52.0387 28.5755ZM5.35806 2.90098C5.35806 2.41381 5.75444 2.0183 6.24161 2.0183H46.8029C47.2901 2.0183 47.6865 2.41468 47.6865 2.90098V28.5764H5.35806V2.90098ZM21.3685 30.3225H31.6769V31.7413H21.3685V30.3225ZM51.1657 31.2663C51.1657 33.6577 49.2196 35.6029 46.8282 35.6029H6.21542C3.82407 35.6029 1.87799 33.6568 1.87799 31.2663V30.3225H19.6224V32.6143C19.6224 33.0963 20.0126 33.4874 20.4954 33.4874H32.55C33.0328 33.4874 33.423 33.0963 33.423 32.6143V30.3225H51.1657V31.2663Z" fill="white"/>
<path d="M15.7353 32.0896H14.8063C14.3235 32.0896 13.9332 32.4808 13.9332 32.9627C13.9332 33.4446 14.3235 33.8358 14.8063 33.8358H15.7353C16.2181 33.8358 16.6083 33.4446 16.6083 32.9627C16.6083 32.4808 16.2181 32.0896 15.7353 32.0896Z" fill="white"/>
<path d="M11.9042 32.0896H10.9752C10.4924 32.0896 10.1022 32.4808 10.1022 32.9627C10.1022 33.4446 10.4924 33.8358 10.9752 33.8358H11.9042C12.387 33.8358 12.7773 33.4446 12.7773 32.9627C12.7773 32.4808 12.387 32.0896 11.9042 32.0896Z" fill="white"/>
<path d="M8.07314 32.0896H7.14419C6.66138 32.0896 6.27112 32.4808 6.27112 32.9627C6.27112 33.4446 6.66138 33.8358 7.14419 33.8358H8.07314C8.55595 33.8358 8.94622 33.4446 8.94622 32.9627C8.94622 32.4808 8.55595 32.0896 8.07314 32.0896Z" fill="white"/>
<path d="M22.6775 19.4012C22.901 19.4012 23.1245 19.3156 23.2948 19.1454L30.9839 11.4562C31.3253 11.1149 31.3253 10.5631 30.9839 10.2217C30.6426 9.88032 30.0908 9.88032 29.7494 10.2217L22.0602 17.9109C21.7189 18.2522 21.7189 18.804 22.0602 19.1454C22.2305 19.3156 22.454 19.4012 22.6775 19.4012Z" fill="white"/>
<path d="M29.4146 15.3449L27.183 17.5765C26.8417 17.9179 26.8417 18.4705 27.183 18.811C27.3533 18.9813 27.5768 19.0668 27.8003 19.0668C28.0238 19.0668 28.2473 18.9813 28.4176 18.811L30.6491 16.5795C30.9905 16.2381 30.9905 15.6854 30.6491 15.3449C30.3078 15.0036 29.756 15.0036 29.4146 15.3449Z" fill="white"/>
</svg>
