<svg width="35" height="35" viewBox="0 0 35 35" fill="none" xmlns="http://www.w3.org/2000/svg">
<path d="M34.9612 18.3301C34.9035 18.0474 34.6724 17.8272 34.3862 17.7856C34.0993 17.7437 33.8094 17.8945 33.6781 18.1529C33.5521 18.4006 33.5903 18.707 33.7734 18.9163C33.9648 19.1352 34.2827 19.2088 34.5509 19.0978C34.8488 18.9747 35.0258 18.6467 34.9612 18.3301Z" fill="white"/>
<path d="M33.2486 20.2608C32.9206 20.071 32.501 20.1828 32.3112 20.5106L30.73 23.2418C30.2359 24.0943 29.1404 24.3863 28.2879 23.8925C27.4353 23.3987 27.1433 22.3033 27.6371 21.4507L33.9766 10.5034C35.9077 7.1687 34.7658 2.88431 31.4309 0.953383C28.096 -0.977809 23.8118 0.16409 21.8809 3.49903L21.0788 4.88383C18.7878 3.74594 16.1936 3.48168 13.6997 4.14632C10.9835 4.87049 8.71171 6.60869 7.30315 9.04143L1.42149 19.1981C0.0126721 21.6306 -0.364224 24.4661 0.359673 27.1824C1.08357 29.8983 2.82204 32.1701 5.25452 33.5786C6.87901 34.5193 8.68288 35 10.511 35C11.4207 35 12.3363 34.881 13.2387 34.6405C15.9549 33.9166 18.2265 32.1781 19.635 29.7456L24.0027 22.2037C24.0067 22.1968 24.0099 22.1893 24.0136 22.1823C24.0179 22.1751 24.023 22.1685 24.0272 22.1613L25.5169 19.5886C26.9258 17.1562 27.3027 14.3206 26.5788 11.6044C25.9141 9.11057 24.3935 6.99199 22.2661 5.57143L23.0682 4.18636C24.6201 1.50645 28.0631 0.588498 30.7433 2.14066C32.0419 2.89232 32.9694 4.10495 33.356 5.55461C33.7425 7.00427 33.5412 8.51773 32.7893 9.81604L26.4498 20.7631C25.577 22.2704 26.0932 24.207 27.6003 25.0798C28.0976 25.3678 28.6413 25.5045 29.1781 25.5045C30.2693 25.5045 31.3321 24.9394 31.917 23.9294L33.4985 21.1982C33.6885 20.8704 33.5767 20.4508 33.2486 20.2608ZM18.0492 10.1275C18.2129 9.84621 18.5486 9.72582 18.8468 9.82245C18.8513 9.82405 18.8556 9.82539 18.8599 9.82699C18.8764 9.83286 18.8924 9.839 18.9085 9.84594C18.9271 9.85421 18.9453 9.86329 18.9632 9.87317C18.9677 9.87584 18.9725 9.8777 18.9771 9.88037L18.9787 9.88117C19.3024 10.0691 19.4132 10.4852 19.2258 10.8095L17.6862 13.4678C17.5952 13.6248 17.4486 13.7369 17.2733 13.7836C17.0979 13.8303 16.9145 13.8058 16.7576 13.715C16.6004 13.624 16.488 13.4772 16.4413 13.3015C16.3943 13.1262 16.4189 12.9428 16.5099 12.7858L18.0492 10.1275ZM8.49043 9.72876C9.71534 7.61339 11.6908 6.1018 14.0528 5.47213C16.1925 4.90172 18.4176 5.11712 20.3899 6.07351L19.0142 8.4494C18.7171 8.39307 18.4088 8.40348 18.108 8.48383C17.632 8.61062 17.2266 8.89836 16.9508 9.30008C16.9503 9.30088 16.9498 9.30168 16.949 9.30248C16.9196 9.34546 16.8913 9.3895 16.8649 9.43515L15.3191 12.1041C14.8734 12.8739 14.9876 13.8162 15.5348 14.4576L14.6686 15.9534L7.32157 11.7472L8.49043 9.72876ZM18.448 29.058C15.9192 33.4249 10.309 34.9202 5.94211 32.3914C1.57524 29.8625 0.0799366 24.2526 2.60877 19.8857L6.63237 12.9374L22.4716 22.1097L18.448 29.058ZM25.253 11.9578C25.8826 14.3198 25.5546 16.7857 24.3297 18.9011L23.1835 20.8803L15.8578 16.6378L16.7215 15.146C16.8454 15.1695 16.9711 15.1817 17.0974 15.1817C17.2741 15.1817 17.4521 15.1588 17.6275 15.1121C18.1555 14.9711 18.597 14.6335 18.8706 14.1608L20.4163 11.4918C20.8618 10.7222 20.7478 9.78028 20.2006 9.13833L21.5772 6.76084C23.3885 7.99563 24.6825 9.81818 25.253 11.9578Z" fill="white"/>
</svg>
