<svg width="48" height="48" viewBox="0 0 48 48" fill="none" xmlns="http://www.w3.org/2000/svg">
<path d="M4.54519 19.2831C4.75478 19.2843 4.95624 19.202 5.10505 19.0544L8.25922 15.9002C8.56842 15.591 8.56842 15.0897 8.25922 14.7805C7.95001 14.4713 7.44869 14.4713 7.13949 14.7805L3.98532 17.9347C3.83604 18.0827 3.75208 18.2843 3.75208 18.4945C3.75208 18.7048 3.83604 18.9063 3.98532 19.0544C4.13414 19.202 4.33559 19.2843 4.54519 19.2831Z" fill="white"/>
<path d="M4.54519 24.0143C4.75478 24.0155 4.95624 23.9332 5.10505 23.7856L12.9905 15.9002C13.2997 15.591 13.2997 15.0897 12.9905 14.7805C12.6813 14.4713 12.1799 14.4713 11.8707 14.7805L3.98532 22.6659C3.83604 22.814 3.75208 23.0155 3.75208 23.2258C3.75208 23.436 3.83604 23.6376 3.98532 23.7856C4.13414 23.9332 4.33559 24.0155 4.54519 24.0143Z" fill="white"/>
<path d="M45.5494 0.358093H25.0473C23.7408 0.358093 22.6817 1.41722 22.6817 2.72372V11.3977H4.54524C2.36775 11.3977 0.602539 13.1629 0.602539 15.3404V35.8424C0.602539 38.0199 2.36775 39.7851 4.54524 39.7851H13.2192V42.9393H10.8536C9.54707 42.9393 8.48795 43.9984 8.48795 45.3049C8.48795 46.6114 9.54707 47.6705 10.8536 47.6705H45.5494C46.8559 47.6705 47.915 46.6114 47.915 45.3049V2.72372C47.915 1.41722 46.8559 0.358093 45.5494 0.358093ZM4.54524 12.9747H32.9327C34.2392 12.9747 35.2983 14.0339 35.2983 15.3404V34.2653H2.17962V15.3404C2.17962 14.0339 3.23875 12.9747 4.54524 12.9747ZM2.17962 35.8424H35.2983C35.2983 37.1489 34.2392 38.208 32.9327 38.208H4.54524C3.23875 38.208 2.17962 37.1489 2.17962 35.8424ZM14.7963 39.7851H22.6817V42.9393H14.7963V39.7851ZM25.0473 46.0935H10.8536C10.4181 46.0935 10.065 45.7404 10.065 45.3049C10.065 44.8694 10.4181 44.5164 10.8536 44.5164H26.6244C27.0599 44.5164 27.4129 44.8694 27.4129 45.3049C27.4129 45.7404 27.0599 46.0935 26.6244 46.0935H25.0473ZM46.3379 45.3049C46.3379 45.7404 45.9849 46.0935 45.5494 46.0935H28.8481C29.1037 45.3705 28.993 44.5685 28.5512 43.9418C28.1094 43.3151 27.3912 42.9414 26.6244 42.9393H24.2588V39.7851H32.9327C35.1102 39.7851 36.8754 38.0199 36.8754 35.8424V15.3404C36.8754 13.1629 35.1102 11.3977 32.9327 11.3977H24.2588V2.72372C24.2588 2.28822 24.6118 1.93517 25.0473 1.93517H45.5494C45.9849 1.93517 46.3379 2.28822 46.3379 2.72372V45.3049Z" fill="white"/>
<path d="M43.1843 4.30078H27.4135C26.5425 4.30078 25.8364 5.00686 25.8364 5.87786V7.45494C25.8364 8.32594 26.5425 9.03203 27.4135 9.03203H43.1843C44.0553 9.03203 44.7614 8.32594 44.7614 7.45494V5.87786C44.7614 5.00686 44.0553 4.30078 43.1843 4.30078ZM27.4135 7.45494V5.87786H43.1843V7.45494H27.4135Z" fill="white"/>
<path d="M41.6059 16.1289C42.9124 16.1289 43.9715 15.0698 43.9715 13.7633C43.9715 12.4568 42.9124 11.3977 41.6059 11.3977C40.2994 11.3977 39.2403 12.4568 39.2403 13.7633C39.2403 15.0698 40.2994 16.1289 41.6059 16.1289ZM41.6059 12.9748C42.0414 12.9748 42.3944 13.3278 42.3944 13.7633C42.3944 14.1988 42.0414 14.5518 41.6059 14.5518C41.1704 14.5518 40.8173 14.1988 40.8173 13.7633C40.8173 13.3278 41.1704 12.9748 41.6059 12.9748Z" fill="white"/>
<path d="M43.9715 20.0716C43.9715 18.7651 42.9124 17.706 41.6059 17.706C40.2994 17.706 39.2403 18.7651 39.2403 20.0716C39.2403 21.3781 40.2994 22.4372 41.6059 22.4372C42.9124 22.4372 43.9715 21.3781 43.9715 20.0716ZM41.6059 20.8601C41.1704 20.8601 40.8173 20.5071 40.8173 20.0716C40.8173 19.6361 41.1704 19.2831 41.6059 19.2831C42.0414 19.2831 42.3944 19.6361 42.3944 20.0716C42.3944 20.5071 42.0414 20.8601 41.6059 20.8601Z" fill="white"/>
<path d="M31.356 41.3622C30.9205 41.3622 30.5675 41.7152 30.5675 42.1507V43.7278C30.5675 44.1633 30.9205 44.5164 31.356 44.5164C31.7915 44.5164 32.1446 44.1633 32.1446 43.7278V42.1507C32.1446 41.7152 31.7915 41.3622 31.356 41.3622Z" fill="white"/>
<path d="M34.5094 41.3622C34.0739 41.3622 33.7209 41.7152 33.7209 42.1507V43.7278C33.7209 44.1633 34.0739 44.5164 34.5094 44.5164C34.9449 44.5164 35.2979 44.1633 35.2979 43.7278V42.1507C35.2979 41.7152 34.9449 41.3622 34.5094 41.3622Z" fill="white"/>
<path d="M37.6638 41.3622C37.2283 41.3622 36.8752 41.7152 36.8752 42.1507V43.7278C36.8752 44.1633 37.2283 44.5164 37.6638 44.5164C38.0993 44.5164 38.4523 44.1633 38.4523 43.7278V42.1507C38.4523 41.7152 38.0993 41.3622 37.6638 41.3622Z" fill="white"/>
<path d="M40.8181 41.3622C40.3826 41.3622 40.0296 41.7152 40.0296 42.1507V43.7278C40.0296 44.1633 40.3826 44.5164 40.8181 44.5164C41.2536 44.5164 41.6067 44.1633 41.6067 43.7278V42.1507C41.6067 41.7152 41.2536 41.3622 40.8181 41.3622Z" fill="white"/>
<path d="M43.9725 41.3622C43.537 41.3622 43.1839 41.7152 43.1839 42.1507V43.7278C43.1839 44.1633 43.537 44.5164 43.9725 44.5164C44.408 44.5164 44.761 44.1633 44.761 43.7278V42.1507C44.761 41.7152 44.408 41.3622 43.9725 41.3622Z" fill="white"/>
</svg>
