<svg width="42" height="26" viewBox="0 0 42 26" fill="none" xmlns="http://www.w3.org/2000/svg">
<path d="M13.5789 16.421H20.421V4.10526H13.5789V16.421ZM14.9473 5.47368H19.0526V15.0526H14.9473V5.47368Z" fill="white"/>
<path d="M21.7901 16.421H28.6322V4.10526H21.7901V16.421ZM23.1585 5.47368H27.2638V15.0526H23.1585V5.47368Z" fill="white"/>
<path d="M5.3678 16.421H12.2099V4.10526H5.3678V16.421ZM6.73622 5.47368H10.8415V15.0526H6.73622V5.47368Z" fill="white"/>
<path d="M30.0003 16.421H36.8424V4.10526H30.0003V16.421ZM31.3688 5.47368H35.474V15.0526H31.3688V5.47368Z" fill="white"/>
<path d="M40.9475 8.21053C41.3254 8.21053 41.6317 7.90417 41.6317 7.52632V2.05263C41.6317 0.91898 40.7128 0 39.5791 0H2.63173C1.49808 0 0.579102 0.91898 0.579102 2.05263V7.52632C0.579102 7.90417 0.885457 8.21053 1.26331 8.21053C1.64117 8.21053 1.94752 8.51688 1.94752 8.89474C1.94752 9.27259 1.64117 9.57895 1.26331 9.57895C0.885457 9.57895 0.579102 9.8853 0.579102 10.2632V19.8421C0.579102 20.22 0.885457 20.5263 1.26331 20.5263H4.00015V25.3158C4.00015 25.6936 4.30651 26 4.68436 26H15.6317C16.0096 26 16.3159 25.6936 16.3159 25.3158V23.9474C16.3159 23.5695 16.6223 23.2632 17.0002 23.2632C17.1847 23.2626 17.3613 23.3383 17.488 23.4725C17.6149 23.5978 17.6857 23.769 17.6844 23.9474V25.3158C17.6844 25.6936 17.9907 26 18.3686 26H37.5265C37.9043 26 38.2107 25.6936 38.2107 25.3158V20.5263H40.9475C41.3254 20.5263 41.6317 20.22 41.6317 19.8421V10.2632C41.6317 9.8853 41.3254 9.57895 40.9475 9.57895C40.5697 9.57895 40.2633 9.27259 40.2633 8.89474C40.2633 8.51688 40.5697 8.21053 40.9475 8.21053ZM36.8423 24.6316H35.4738V21.8947H34.1054V24.6316H32.737V21.8947H31.3686V24.6316H30.0002V21.8947H28.6317V24.6316H27.2633V21.8947H25.8949V24.6316H24.5265V21.8947H23.158V24.6316H21.7896V21.8947H20.4212V24.6316H19.0528V23.9474C19.0479 22.8158 18.1318 21.8996 17.0002 21.8947C15.8665 21.8947 14.9475 22.8137 14.9475 23.9474V24.6316H13.5791V21.8947H12.2107V24.6316H10.8423V21.8947H9.47384V24.6316H8.10542V21.8947H6.737V24.6316H5.36858V20.5263H36.8423V24.6316ZM40.2633 6.95911C39.1943 7.33636 38.6335 8.50884 39.0108 9.57784C39.2174 10.1633 39.6779 10.6237 40.2633 10.8304V19.1579H1.94752V10.8304C3.01652 10.4531 3.57731 9.28063 3.20006 8.21164C2.99342 7.62621 2.53295 7.16574 1.94752 6.95911V2.05263C1.94752 1.67478 2.25388 1.36842 2.63173 1.36842H39.5791C39.957 1.36842 40.2633 1.67478 40.2633 2.05263V6.95911Z" fill="white"/>
</svg>
